<?xml version="1.0" standalone="no"?>
<!DOCTYPE svg PUBLIC "-//W3C//DTD SVG 20010904//EN"
 "http://www.w3.org/TR/2001/REC-SVG-20010904/DTD/svg10.dtd">
<svg version="1.0" xmlns="http://www.w3.org/2000/svg"
 width="512.000000pt" height="512.000000pt" viewBox="0 0 512.000000 512.000000"
 preserveAspectRatio="xMidYMid meet">

<g transform="translate(0.000000,512.000000) scale(0.100000,-0.100000)"
fill="#000000" stroke="none">
<path d="M2250 3724 c-188 -35 -226 -59 -323 -206 -81 -124 -112 -197 -162
-391 -20 -76 -45 -146 -63 -175 -23 -37 -32 -69 -42 -147 -8 -55 -13 -125 -12
-155 2 -63 17 -50 -153 -127 -71 -32 -114 -46 -149 -47 -27 0 -51 -6 -53 -12
-6 -18 64 -89 106 -109 40 -18 42 -18 122 5 l82 24 30 -34 c25 -28 28 -38 23
-71 -10 -60 9 -46 24 19 l14 57 8 -85 c17 -174 86 -245 303 -306 78 -22 205
-29 251 -14 85 28 178 135 229 265 15 39 32 76 38 83 12 16 47 15 69 -2 15
-11 16 -28 11 -154 -3 -78 -9 -139 -13 -137 -4 3 -10 -13 -14 -34 -6 -38 18
-131 34 -131 13 0 18 74 6 82 -8 5 -7 8 1 8 7 0 19 -15 27 -33 27 -66 118
-120 262 -157 43 -12 100 -21 127 -21 l47 -1 -24 -19 c-13 -10 -28 -19 -33
-19 -4 0 -19 -6 -34 -13 -45 -24 -122 -47 -155 -47 -23 0 -42 -9 -64 -31 -22
-23 -43 -33 -73 -36 -23 -3 -49 -13 -58 -22 -15 -15 -14 -18 10 -40 28 -25 14
-20 -31 11 -22 15 -56 58 -90 113 -4 6 10 9 35 7 53 -4 95 28 97 73 4 56 0 65
-47 110 -45 44 -46 45 -57 23 -6 -12 -31 -33 -56 -47 -37 -21 -58 -26 -117
-26 -44 0 -77 5 -85 13 -17 17 -48 15 -48 -2 0 -33 59 -64 100 -53 14 4 25 -2
36 -18 8 -12 29 -25 46 -29 17 -3 29 -9 26 -11 -3 -3 -38 2 -79 11 -54 12 -93
15 -149 10 -41 -4 -112 -11 -157 -14 -93 -8 -86 -3 -155 -119 -24 -40 -48 -73
-54 -73 -15 0 -30 40 -44 110 -33 174 -39 189 -90 225 -21 14 -48 37 -60 50
-31 33 -54 33 -48 1 4 -20 1 -24 -15 -20 -25 4 -23 3 -47 50 l-19 39 -1 -68
c0 -79 28 -185 51 -192 12 -4 19 -28 27 -93 12 -98 50 -218 86 -273 39 -59
219 -214 230 -197 32 49 61 206 52 285 -7 63 -1 93 18 93 6 0 26 29 45 65 19
35 40 66 47 69 7 3 69 8 137 12 168 9 224 -11 267 -97 21 -39 10 -57 -10 -18
-7 12 -18 18 -26 15 -8 -3 -13 -2 -9 3 20 34 -56 68 -113 52 -23 -7 -30 -6
-26 1 5 8 -5 8 -32 2 -21 -5 -67 -9 -102 -9 -60 0 -78 -7 -48 -18 8 -3 24 -3
35 0 25 6 104 -14 146 -38 17 -9 46 -20 65 -24 89 -17 90 -26 10 -79 -33 -21
-60 -42 -60 -47 0 -18 -40 -8 -70 18 -35 29 -50 21 -50 -28 0 -38 -30 -62 -64
-50 -43 17 -59 4 -53 -42 6 -41 30 -82 60 -101 11 -7 29 -7 59 2 258 76 443
123 478 120 75 -6 48 -20 -237 -124 -57 -20 -103 -40 -103 -44 0 -4 9 -10 20
-13 21 -5 28 -41 10 -52 -5 -3 -10 3 -10 14 0 22 -17 37 -28 26 -4 -4 -1 -10
6 -12 6 -3 12 -9 12 -14 0 -6 -4 -7 -10 -4 -5 3 -10 2 -10 -4 0 -5 5 -11 11
-13 5 -2 -4 -24 -20 -48 -17 -25 -31 -55 -31 -66 0 -12 -6 -26 -12 -31 -26
-19 -290 -83 -343 -83 -26 0 -35 8 -63 53 -38 63 -42 108 -9 130 22 16 21 16
-8 7 -16 -4 -52 -19 -80 -33 -27 -13 -61 -28 -75 -32 -14 -4 -40 -23 -57 -41
-18 -19 -35 -34 -37 -34 -2 0 -41 7 -87 16 -125 24 -176 15 -252 -44 -129 -98
-194 -181 -291 -372 -60 -117 -96 -222 -96 -281 0 -39 34 -153 53 -176 7 -10
109 -13 448 -13 l439 0 0 51 c0 27 4 48 9 45 4 -3 6 -26 4 -51 -5 -42 -3 -45
19 -45 24 0 25 3 36 128 12 141 50 288 101 395 32 67 36 126 12 150 -14 14
-14 30 -1 22 6 -3 7 1 4 9 -3 9 -9 14 -14 11 -4 -2 -5 6 -3 19 5 22 11 24 126
36 67 6 152 18 190 25 62 11 69 10 89 -7 26 -23 39 -25 153 -33 50 -3 109 -10
132 -14 24 -5 40 -4 37 0 -3 5 2 9 12 9 14 0 14 3 3 16 -11 13 -9 14 17 8 16
-4 38 -14 49 -24 11 -10 30 -23 43 -29 29 -15 28 -26 -5 -46 -55 -33 -89 -161
-64 -236 14 -43 51 -328 51 -391 l0 -48 420 0 c231 0 420 3 420 6 0 16 -45
131 -61 154 -9 14 -31 48 -48 77 -43 69 -199 217 -264 249 -64 33 -61 28 -46
52 10 17 4 29 -50 103 -35 46 -100 124 -146 174 -45 49 -94 104 -108 121 l-27
32 38 24 c63 42 148 125 182 178 21 33 39 50 52 50 11 0 37 9 57 19 20 11 48
22 62 25 40 9 135 78 167 121 60 84 93 165 99 249 5 63 4 78 -7 71 -7 -4 -11
-4 -9 1 2 5 11 26 19 47 10 28 20 37 37 37 16 0 24 7 29 25 8 32 49 65 80 65
20 0 24 5 24 28 0 26 -50 112 -93 159 l-20 23 46 112 c59 146 61 153 58 221
-1 34 7 89 18 130 11 40 32 132 47 206 23 116 26 151 22 261 -5 149 -17 177
-114 272 -144 141 -243 201 -539 328 -62 26 -225 72 -325 91 -148 28 -484 35
-600 13z m170 -974 c175 -31 422 -94 570 -145 125 -44 267 -114 252 -124 -4
-3 -7 -23 -6 -43 2 -39 -16 -65 -37 -52 -8 4 -9 3 -5 -4 4 -7 19 -10 34 -6 23
4 24 4 9 -6 -14 -9 -45 -5 -145 18 -70 17 -152 33 -182 37 -30 4 -69 11 -87
17 -25 9 -34 8 -47 -5 -9 -8 -40 -25 -70 -36 -49 -18 -58 -19 -111 -6 -61 14
-73 25 -207 185 -30 36 -73 76 -97 89 -58 32 -146 32 -216 1 -48 -21 -53 -22
-162 -9 -62 7 -113 15 -113 19 0 14 72 63 119 82 40 16 67 18 211 14 109 -2
208 -11 290 -26z m-678 -152 c-15 -15 -26 -4 -18 18 5 13 9 15 18 6 9 -9 9
-15 0 -24z m462 23 c21 -5 44 -15 50 -21 8 -9 5 -10 -14 -4 -14 4 -45 13 -70
20 -52 14 -24 18 34 5z m-264 -56 c0 -14 4 -14 31 1 27 14 43 14 103 5 81 -12
213 -53 269 -84 39 -22 107 -105 107 -132 0 -74 -73 -230 -137 -292 -72 -70
-155 -79 -308 -33 -204 61 -249 128 -226 334 14 120 39 182 83 201 44 19 78
19 78 0z m881 -230 c30 -14 31 -15 9 -14 -49 2 -52 0 -46 -26 5 -18 2 -27 -9
-31 -8 -4 -15 -13 -15 -21 0 -8 -4 -11 -10 -8 -5 3 -10 1 -10 -6 0 -7 -3 -9
-7 -6 -3 4 -15 -1 -26 -10 -19 -18 -19 -17 -13 17 12 59 25 84 54 102 35 21
34 21 73 3z m165 -90 c20 -8 41 -12 47 -8 5 3 7 1 3 -5 -3 -5 9 -19 26 -31 35
-21 73 -61 59 -61 -4 0 -28 16 -52 35 -53 42 -122 65 -198 65 -40 0 -52 3 -41
10 23 15 116 12 156 -5z m471 -77 c-3 -8 -6 -5 -6 6 -1 11 2 17 5 13 3 -3 4
-12 1 -19z m-552 -13 c0 -13 -8 -21 -22 -23 -17 -3 -23 2 -23 16 0 10 3 22 7
26 13 13 38 1 38 -19z m-79 -94 c24 -19 38 -22 81 -19 60 5 87 24 105 74 7 19
15 34 18 34 4 0 19 -14 36 -31 28 -30 28 -31 5 -24 -14 4 -21 3 -18 -3 4 -5
-4 -8 -18 -6 -14 1 -25 -2 -25 -6 0 -20 -52 -69 -67 -63 -11 4 -14 2 -9 -5 9
-15 119 -16 166 -1 43 13 141 19 135 8 -3 -4 -1 -9 4 -11 20 -7 -48 -143 -84
-170 -6 -5 -5 -11 4 -17 11 -7 7 -13 -17 -25 -40 -21 -86 -20 -197 3 -101 21
-177 55 -216 98 -31 33 -59 111 -59 163 0 39 29 74 54 64 9 -3 19 4 26 16 12
22 13 21 30 -17 10 -22 30 -50 46 -62z m623 -41 c0 -10 -3 -8 -9 5 -12 27 -12
43 0 25 5 -8 9 -22 9 -30z m-27 -12 c-7 -7 -12 -8 -12 -2 0 14 12 26 19 19 2
-3 -1 -11 -7 -17z m-5 -150 c-3 -7 -5 -2 -5 12 0 14 2 19 5 13 2 -7 2 -19 0
-25z m216 12 c-3 -11 -9 -20 -14 -20 -11 0 -11 3 -3 24 9 23 23 20 17 -4z
m-229 -26 c3 -8 2 -12 -4 -9 -6 3 -10 10 -10 16 0 14 7 11 14 -7z m209 -24
c-3 -12 -8 -19 -11 -16 -5 6 5 36 12 36 2 0 2 -9 -1 -20z m-188 -19 c3 -5 1
-12 -5 -16 -5 -3 -10 1 -10 9 0 18 6 21 15 7z m104 -47 c-6 -21 -14 -41 -18
-44 -3 -3 -13 -18 -20 -33 -19 -36 -80 -107 -92 -107 -5 0 -9 6 -9 13 0 17 97
157 109 157 5 0 14 14 21 30 17 41 22 33 9 -16z m12 -97 c-10 -9 -11 -8 -5 6
3 10 9 15 12 12 3 -3 0 -11 -7 -18z m-53 -92 c-6 -14 -15 -25 -20 -25 -5 0 -1
11 8 25 9 14 18 25 20 25 2 0 -2 -11 -8 -25z m-1048 -16 c0 -6 -4 -7 -10 -4
-5 3 -10 11 -10 16 0 6 5 7 10 4 6 -3 10 -11 10 -16z m-15 -28 c-6 -5 -25 10
-25 20 0 5 6 4 14 -3 8 -7 12 -15 11 -17z m-55 -241 c12 -7 10 -9 -8 -7 -12 0
-22 5 -22 9 0 11 12 10 30 -2z m45 -300 c5 -17 4 -22 -3 -15 -5 6 -13 21 -17
35 -5 17 -4 22 3 15 5 -5 13 -21 17 -35z m572 -507 c-3 -10 -5 -4 -5 12 0 17
2 24 5 18 2 -7 2 -21 0 -30z m-140 -79 c-3 -3 -12 -4 -19 -1 -8 3 -5 6 6 6 11
1 17 -2 13 -5z m10 -50 c-3 -3 -12 -4 -19 -1 -8 3 -5 6 6 6 11 1 17 -2 13 -5z
m3 -18 c0 -2 -7 -7 -16 -10 -8 -3 -12 -2 -9 4 6 10 25 14 25 6z m-1160 -43
c-11 -17 -11 -17 -6 0 3 10 6 24 7 30 0 9 2 9 5 0 3 -7 0 -20 -6 -30z m1157
11 c-3 -3 -12 -4 -19 -1 -8 3 -5 6 6 6 11 1 17 -2 13 -5z m10 -20 c-3 -3 -12
-4 -19 -1 -8 3 -5 6 6 6 11 1 17 -2 13 -5z m-1177 -69 c0 -8 -4 -15 -10 -15
-5 0 -7 7 -4 15 4 8 8 15 10 15 2 0 4 -7 4 -15z m167 -71 c-3 -3 -12 -4 -19
-1 -8 3 -5 6 6 6 11 1 17 -2 13 -5z m-200 -36 c-3 -8 -6 -5 -6 6 -1 11 2 17 5
13 3 -3 4 -12 1 -19z m1231 -5 c2 -8 -5 -13 -20 -12 -20 1 -21 2 -3 7 l20 5
-20 8 c-19 8 -19 9 -1 6 11 -1 21 -8 24 -14z m-1 -29 c-3 -3 -12 -4 -19 -1 -8
3 -5 6 6 6 11 1 17 -2 13 -5z"/>
<path d="M2005 2449 c-22 -12 -54 -32 -71 -46 -29 -21 -31 -26 -20 -48 14 -31
27 -31 56 0 32 34 40 32 40 -13 0 -21 7 -48 16 -60 18 -26 65 -52 94 -52 57 0
120 68 120 129 0 17 4 31 8 31 19 0 63 -60 81 -110 19 -53 20 -53 20 -20 0 51
-37 118 -93 164 -46 40 -51 41 -130 44 -68 3 -87 0 -121 -19z m135 -124 c0
-18 -5 -25 -19 -25 -11 0 -23 5 -26 10 -11 18 3 40 25 40 15 0 20 -7 20 -25z"/>
<path d="M2090 1565 c0 -8 5 -15 10 -15 6 0 10 7 10 15 0 8 -4 15 -10 15 -5 0
-10 -7 -10 -15z"/>
</g>
</svg>
